Coordinates
version=1
nRows=12
nColumns=34
inDegrees=yes

Units are S.I. units (second, meters, Newtons, ...)
If the header above contains a line with 'inDegrees', this indicates whether rotational values are in degrees (yes) or radians (no).

endheader
time	pelvis_tilt	pelvis_list	pelvis_rotation	pelvis_tx	pelvis_ty	pelvis_tz	hip_flexion_r	hip_adduction_r	hip_rotation_r	knee_angle_r	ankle_angle_r	subtalar_angle_r	mtp_angle_r	hip_flexion_l	hip_adduction_l	hip_rotation_l	knee_angle_l	ankle_angle_l	subtalar_angle_l	mtp_angle_l	lumbar_extension	lumbar_bending	lumbar_rotation	arm_flex_r	arm_add_r	arm_rot_r	elbow_flex_r	pro_sup_r	arm_flex_l	arm_add_l	arm_rot_l	elbow_flex_l	pro_sup_l
      5.20000000	     -1.69535792	      0.98912117	      3.46248042	      0.75689799	      0.91597398	     -0.02263643	      0.01994625	     -4.46267682	    -16.35382061	      0.00000000	      5.82013876	     -1.26609120	      0.00000000	      0.96290312	     -3.03460397	    -17.32874504	      0.00000000	      6.92542803	     11.79710196	      0.00000000	     -0.57966790	      0.12646002	      2.80916341	     12.60751844	     -7.50618798	     63.75629008	     58.35982735	     83.07290196	     14.32304430	     -5.41832523	     55.06724805	     51.89428561	     77.33369021
      5.21666670	     -0.98386484	      1.01288692	      3.61124041	      0.75666785	      0.91638298	     -0.02296255	     -0.76596318	     -4.45879684	    -16.80565901	      0.00000000	      5.82901453	     -0.98747803	      0.00000000	      0.23473169	     -3.04215303	    -17.60331212	      0.00000000	      7.14208972	     12.46415815	      0.00000000	     -1.35314340	      0.07118114	      2.71670442	     13.62956430	     -7.35842859	     65.13143719	     57.25872037	     82.86481896	     15.11118804	     -4.42644455	     55.43605350	     48.61169014	     78.18102947
      5.23333330	     -0.97688410	      1.01193246	      3.61841915	      0.75631028	      0.91632773	     -0.02288166	     -0.75083947	     -4.46001757	    -16.80879187	      0.00000000	      5.82722611	     -0.98755260	      0.00000000	      0.22627533	     -3.04471213	    -17.60281161	      0.00000000	      7.14111756	     12.46541328	      0.00000000	     -1.35262391	      0.06724889	      2.72061098	     13.63049775	     -7.35698287	     65.13311193	     57.25834564	     82.86423463	     15.10679095	     -4.42828815	     55.43742556	     48.60917043	     78.18276089
      5.25000000	     -0.98854563	      1.00538067	      3.62926605	      0.75619261	      0.91554585	     -0.02342182	     -0.72954793	     -4.44545894	    -16.91498842	      0.00000000	      5.79566667	     -1.00756210	      0.00000000	      0.24073328	     -3.06018963	    -17.59046002	      0.00000000	      7.11475472	     12.49322513	      0.00000000	     -1.37106736	     -0.04699244	      2.81399454	     13.74560913	     -7.31237578	     65.14536749	     57.24040522	     82.85147363	     15.01775855	     -4.42179567	     55.46870256	     48.52998715	     78.21767803
      5.26666670	     -1.00632850	      1.01064819	      3.62972309	      0.75763225	      0.91642594	     -0.02279842	     -0.72975153	     -4.44775846	    -16.91921709	      0.00000000	      5.79335463	     -1.00752977	      0.00000000	      0.22774536	     -3.05980635	    -17.58956122	      0.00000000	      7.11149377	     12.49476519	      0.00000000	     -1.37190905	     -0.04861147	      2.81271888	     13.74827926	     -7.31128398	     65.14747088	     57.23803752	     82.85075293	     15.01960700	     -4.41610725	     55.46941892	     48.52487218	     78.21979854
      5.28333330	     -1.01201999	      1.01269333	      3.62907203	      0.75738774	      0.91534574	     -0.02286216	     -0.73121245	     -4.44707738	    -16.92043752	      0.00000000	      5.79297067	     -1.00756320	      0.00000000	      0.21943414	     -3.06067169	    -17.58963062	      0.00000000	      7.11059013	     12.49504613	      0.00000000	     -1.37172503	     -0.04986370	      2.81234853	     13.74763260	     -7.31032322	     65.14834927	     57.23759173	     82.85066258	     15.01906284	     -4.41476369	     55.46980364	     48.52346087	     78.22019404
      5.30000000	     -0.92328222	      1.10795370	      3.64854454	      0.75787626	      0.91660782	     -0.02297152	     -0.87147751	     -4.55510900	    -17.34911782	      0.00000000	      5.89634501	     -0.50584044	      0.00000000	      0.07629115	     -2.97119199	    -17.65280129	      0.00000000	      6.94404262	     12.73047349	      0.00000000	     -1.20181106	     -0.26432445	      2.67595758	     14.11809541	     -6.91920254	     66.30763718	     56.26558607	     82.63156329	     15.45774841	     -3.36071992	     55.71776654	     45.61078366	     78.99162372
      5.31666670	     -0.93431052	      1.11550930	      3.64000825	      0.75681990	      0.91739498	     -0.02278433	     -0.87621106	     -4.55346017	    -17.34983839	      0.00000000	      5.89766277	     -0.50566794	      0.00000000	      0.07090040	     -2.97434770	    -17.65484542	      0.00000000	      6.94544603	     12.72882815	      0.00000000	     -1.19488227	     -0.26754097	      2.66742543	     14.11432435	     -6.92087733	     66.31004387	     56.26562650	     82.63088353	     15.46691622	     -3.35212957	     55.71770709	     45.61308798	     78.99373374
      5.33333330	     -0.94440329	      1.12502894	      3.52196038	      0.75634870	      0.91698957	     -0.02282417	     -0.83311704	     -4.56945134	    -17.33788543	      0.00000000	      5.91708080	     -0.49819221	      0.00000000	      0.04499003	     -2.95694373	    -17.67846174	      0.00000000	      6.94870255	     12.71286422	      0.00000000	     -1.16150414	     -0.31448338	      2.49612172	     14.06099577	     -6.92470954	     66.34508907	     56.26582848	     82.62562790	     15.70184808	     -3.16722578	     55.69759475	     45.66071335	     79.01347066
      5.35000000	     -0.97379251	      1.15118939	      3.58045177	      0.75663636	      0.91623533	     -0.02317028	     -0.79447315	     -4.61228203	    -17.26150461	      0.00000000	      5.93652630	     -0.46103068	      0.00000000	      0.10827917	     -2.91292746	    -17.75746053	      0.00000000	      6.95681519	     12.67346349	      0.00000000	     -1.15828968	     -0.34504815	      2.27917096	     14.06135222	     -6.88342528	     66.39259321	     56.28999857	     82.61828146	     16.13085773	     -2.88595973	     55.65007845	     45.71250566	     79.04391543
      5.36666670	     -1.00944503	      1.16729760	      3.52315617	      0.75773118	      0.91702311	     -0.02273209	     -0.73189668	     -4.63530279	    -17.22716106	      0.00000000	      5.96209475	     -0.44799305	      0.00000000	      0.12657332	     -2.89790057	    -17.76325662	      0.00000000	      6.94440459	     12.67322735	      0.00000000	     -1.16252121	     -0.38534445	      2.09866473	     14.12239742	     -6.87089384	     66.41497819	     56.31794174	     82.61119696	     16.49062528	     -2.67291268	     55.61324405	     45.72620483	     79.07229250
      5.38333330	     -1.04616546	      1.19772649	      3.59911938	      0.75659968	      0.91578799	     -0.02278952	     -0.68919950	     -4.67830784	    -17.16425212	      0.00000000	      6.00140308	     -0.43486395	      0.00000000	      0.19456266	     -2.86251745	    -17.81151422	      0.00000000	      6.94273856	     12.64652301	      0.00000000	     -1.16343324	     -0.39797323	      1.89303528	     14.27897130	     -6.83503094	     66.42222278	     56.38542918	     82.60211973	     16.97104521	     -2.38800623	     55.56610538	     45.74457210	     79.10967722
